TITLE ""
FILE "1Q_t_1359-1368.mp3" MP3
  TRACK 01 AUDIO
    TITLE "1Q_t_1359-1368_01"
    INDEX 01 00:00:00
  TRACK 02 AUDIO
    TITLE "1Q_t_1359-1368_02"
    INDEX 01 00:00:12
  TRACK 03 AUDIO
    TITLE "1Q_t_1359-1368_03"
    INDEX 01 00:01:53
  TRACK 04 AUDIO
    TITLE "1Q_t_1359-1368_04"
    INDEX 01 00:01:61
  TRACK 05 AUDIO
    TITLE "1Q_t_1359-1368_05"
    INDEX 01 00:04:57
  TRACK 06 AUDIO
    TITLE "1Q_t_1359-1368_06"
    INDEX 01 00:04:63
  TRACK 07 AUDIO
    TITLE "1Q_t_1359-1368_07"
    INDEX 01 00:10:03
  TRACK 08 AUDIO
    TITLE "1Q_t_1359-1368_08"
    INDEX 01 00:10:46
  TRACK 09 AUDIO
    TITLE "1Q_t_1359-1368_09"
    INDEX 01 00:11:63
  TRACK 10 AUDIO
    TITLE "1Q_t_1359-1368_10"
    INDEX 01 00:11:71
  TRACK 11 AUDIO
    TITLE "1Q_t_1359-1368_11"
    INDEX 01 00:13:40
  TRACK 12 AUDIO
    TITLE "1Q_t_1359-1368_12"
    INDEX 01 00:13:46
  TRACK 13 AUDIO
    TITLE "1Q_t_1359-1368_13"
    INDEX 01 00:18:71
  TRACK 14 AUDIO
    TITLE "1Q_t_1359-1368_14"
    INDEX 01 00:19:41
  TRACK 15 AUDIO
    TITLE "1Q_t_1359-1368_15"
    INDEX 01 00:20:48
  TRACK 16 AUDIO
    TITLE "1Q_t_1359-1368_16"
    INDEX 01 00:20:56
  TRACK 17 AUDIO
    TITLE "1Q_t_1359-1368_17"
    INDEX 01 00:22:57
  TRACK 18 AUDIO
    TITLE "1Q_t_1359-1368_18"
    INDEX 01 00:22:63
  TRACK 19 AUDIO
    TITLE "1Q_t_1359-1368_19"
    INDEX 01 00:29:34
  TRACK 20 AUDIO
    TITLE "1Q_t_1359-1368_20"
    INDEX 01 00:30:02
  TRACK 21 AUDIO
    TITLE "1Q_t_1359-1368_21"
    INDEX 01 00:31:27
  TRACK 22 AUDIO
    TITLE "1Q_t_1359-1368_22"
    INDEX 01 00:31:32
  TRACK 23 AUDIO
    TITLE "1Q_t_1359-1368_23"
    INDEX 01 00:32:51
  TRACK 24 AUDIO
    TITLE "1Q_t_1359-1368_24"
    INDEX 01 00:32:59
  TRACK 25 AUDIO
    TITLE "1Q_t_1359-1368_25"
    INDEX 01 00:39:30
  TRACK 26 AUDIO
    TITLE "1Q_t_1359-1368_26"
    INDEX 01 00:40:00
  TRACK 27 AUDIO
    TITLE "1Q_t_1359-1368_27"
    INDEX 01 00:41:01
  TRACK 28 AUDIO
    TITLE "1Q_t_1359-1368_28"
    INDEX 01 00:41:09
  TRACK 29 AUDIO
    TITLE "1Q_t_1359-1368_29"
    INDEX 01 00:42:54
  TRACK 30 AUDIO
    TITLE "1Q_t_1359-1368_30"
    INDEX 01 00:42:62
  TRACK 31 AUDIO
    TITLE "1Q_t_1359-1368_31"
    INDEX 01 00:48:43
  TRACK 32 AUDIO
    TITLE "1Q_t_1359-1368_32"
    INDEX 01 00:49:11
  TRACK 33 AUDIO
    TITLE "1Q_t_1359-1368_33"
    INDEX 01 00:50:30
  TRACK 34 AUDIO
    TITLE "1Q_t_1359-1368_34"
    INDEX 01 00:50:36
  TRACK 35 AUDIO
    TITLE "1Q_t_1359-1368_35"
    INDEX 01 00:52:62
  TRACK 36 AUDIO
    TITLE "1Q_t_1359-1368_36"
    INDEX 01 00:52:70
  TRACK 37 AUDIO
    TITLE "1Q_t_1359-1368_37"
    INDEX 01 00:59:15
  TRACK 38 AUDIO
    TITLE "1Q_t_1359-1368_38"
    INDEX 01 00:59:60
  TRACK 39 AUDIO
    TITLE "1Q_t_1359-1368_39"
    INDEX 01 01:01:00
  TRACK 40 AUDIO
    TITLE "1Q_t_1359-1368_40"
    INDEX 01 01:01:06
  TRACK 41 AUDIO
    TITLE "1Q_t_1359-1368_41"
    INDEX 01 01:03:23
  TRACK 42 AUDIO
    TITLE "1Q_t_1359-1368_42"
    INDEX 01 01:03:28
  TRACK 43 AUDIO
    TITLE "1Q_t_1359-1368_43"
    INDEX 01 01:07:40
  TRACK 44 AUDIO
    TITLE "1Q_t_1359-1368_44"
    INDEX 01 01:08:08
  TRACK 45 AUDIO
    TITLE "1Q_t_1359-1368_45"
    INDEX 01 01:09:62
  TRACK 46 AUDIO
    TITLE "1Q_t_1359-1368_46"
    INDEX 01 01:09:70
  TRACK 47 AUDIO
    TITLE "1Q_t_1359-1368_47"
    INDEX 01 01:12:41
  TRACK 48 AUDIO
    TITLE "1Q_t_1359-1368_48"
    INDEX 01 01:12:49
  TRACK 49 AUDIO
    TITLE "1Q_t_1359-1368_49"
    INDEX 01 01:17:31
  TRACK 50 AUDIO
    TITLE "1Q_t_1359-1368_50"
    INDEX 01 01:18:03
  TRACK 51 AUDIO
    TITLE "1Q_t_1359-1368_51"
    INDEX 01 01:19:27
  TRACK 52 AUDIO
    TITLE "1Q_t_1359-1368_52"
    INDEX 01 01:19:35
  TRACK 53 AUDIO
    TITLE "1Q_t_1359-1368_53"
    INDEX 01 01:22:49
  TRACK 54 AUDIO
    TITLE "1Q_t_1359-1368_54"
    INDEX 01 01:22:53
  TRACK 55 AUDIO
    TITLE "1Q_t_1359-1368_55"
    INDEX 01 01:28:26
  TRACK 56 AUDIO
    TITLE "1Q_t_1359-1368_56"
    INDEX 01 01:28:70
  TRACK 57 AUDIO
    TITLE "1Q_t_1359-1368_57"
    INDEX 01 01:30:27
  TRACK 58 AUDIO
    TITLE "1Q_t_1359-1368_58"
    INDEX 01 01:30:35
  TRACK 59 AUDIO
    TITLE "1Q_t_1359-1368_59"
    INDEX 01 01:31:70
  TRACK 60 AUDIO
    TITLE "1Q_t_1359-1368_60"
    INDEX 01 01:32:01
  TRACK 61 AUDIO
    TITLE "1Q_t_1359-1368_61"
    INDEX 01 01:37:57
